<mxfile host="drawio-plugin" modified="2022-02-15T22:10:50.512Z" agent="5.0 (Macintosh; Intel Mac OS X 10_15_7) AppleWebKit/537.36 (KHTML, like Gecko) Chrome/89.0.4389.114 Safari/537.36" version="15.5.4" etag="7P1_M9_ujGb430kqlF2Z" type="embed"><diagram id="0HyQnO2GlLQbC9k6rCp8" name="Page-1"><mxGraphModel dx="1075" dy="1794" grid="1" gridSize="10" guides="1" tooltips="1" connect="1" arrows="1" fold="1" page="1" pageScale="1" pageWidth="850" pageHeight="1100" math="0" shadow="0"><root><mxCell id="0"/><mxCell id="1" parent="0"/><mxCell id="2" value="&lt;font style=&quot;font-size: 30px&quot;&gt;Schemes&lt;/font&gt;" style="text;html=1;resizable=0;autosize=1;align=center;verticalAlign=middle;points=[];fillColor=none;strokeColor=none;rounded=0;" vertex="1" parent="1"><mxGeometry x="351" y="100" width="140" height="30" as="geometry"/></mxCell><mxCell id="3" value="" style="strokeWidth=2;html=1;shape=mxgraph.flowchart.annotation_1;align=left;pointerEvents=1;fontSize=30;direction=south;" vertex="1" parent="1"><mxGeometry x="300" y="130" width="240" height="50" as="geometry"/></mxCell><mxCell id="4" value="&lt;font style=&quot;font-size: 25px&quot; color=&quot;#ff0000&quot;&gt;scheme_id&lt;/font&gt;" style="text;html=1;resizable=0;autosize=1;align=center;verticalAlign=middle;points=[];rounded=0;fontSize=30;" vertex="1" parent="1"><mxGeometry x="230" y="170" width="140" height="40" as="geometry"/></mxCell><mxCell id="5" value="scheme_name" style="text;html=1;resizable=0;autosize=1;align=center;verticalAlign=middle;points=[];fillColor=none;strokeColor=none;rounded=0;fontSize=25;" vertex="1" parent="1"><mxGeometry x="460" y="170" width="180" height="40" as="geometry"/></mxCell><mxCell id="6" value="&lt;font style=&quot;font-size: 30px&quot;&gt;Steps&lt;/font&gt;" style="text;html=1;resizable=0;autosize=1;align=center;verticalAlign=middle;points=[];fillColor=none;strokeColor=none;rounded=0;fontSize=25;" vertex="1" parent="1"><mxGeometry x="380" y="310" width="90" height="40" as="geometry"/></mxCell><mxCell id="9" value="" style="strokeWidth=2;html=1;shape=mxgraph.flowchart.annotation_1;align=left;pointerEvents=1;fontSize=23;fontColor=#FF0000;direction=south;" vertex="1" parent="1"><mxGeometry x="50" y="350" width="240" height="50" as="geometry"/></mxCell><mxCell id="10" value="&lt;font style=&quot;font-size: 25px&quot;&gt;step_id&lt;/font&gt;" style="text;html=1;resizable=0;autosize=1;align=center;verticalAlign=middle;points=[];fillColor=none;strokeColor=none;rounded=0;fontSize=23;fontColor=#FF0000;" vertex="1" parent="1"><mxGeometry y="400" width="100" height="30" as="geometry"/></mxCell><mxCell id="11" value="&lt;font color=&quot;#007fff&quot;&gt;scheme_id&lt;/font&gt;" style="text;html=1;resizable=0;autosize=1;align=center;verticalAlign=middle;points=[];fillColor=none;strokeColor=none;rounded=0;fontSize=25;fontColor=#FF0000;" vertex="1" parent="1"><mxGeometry x="215" y="390" width="140" height="40" as="geometry"/></mxCell><mxCell id="13" value="" style="strokeWidth=2;html=1;shape=mxgraph.flowchart.annotation_1;align=left;pointerEvents=1;fontSize=23;fontColor=#FF0000;direction=south;" vertex="1" parent="1"><mxGeometry x="290" y="350" width="240" height="50" as="geometry"/></mxCell><mxCell id="14" value="" style="strokeWidth=2;html=1;shape=mxgraph.flowchart.annotation_1;align=left;pointerEvents=1;fontSize=23;fontColor=#FF0000;direction=south;" vertex="1" parent="1"><mxGeometry x="530" y="350" width="240" height="50" as="geometry"/></mxCell><mxCell id="15" value="&lt;font color=&quot;#ffffff&quot;&gt;step_number&lt;/font&gt;" style="text;html=1;resizable=0;autosize=1;align=center;verticalAlign=middle;points=[];fillColor=none;strokeColor=none;rounded=0;fontSize=25;fontColor=#007FFF;" vertex="1" parent="1"><mxGeometry x="450" y="390" width="160" height="40" as="geometry"/></mxCell><mxCell id="16" value="instructions" style="text;html=1;resizable=0;autosize=1;align=center;verticalAlign=middle;points=[];fillColor=none;strokeColor=none;rounded=0;fontSize=25;fontColor=#FFFFFF;" vertex="1" parent="1"><mxGeometry x="710" y="395" width="140" height="40" as="geometry"/></mxCell></root></mxGraphModel></diagram></mxfile>